<svg xmlns="http://www.w3.org/2000/svg" viewBox="0 0 284.99 47.58"><defs><style>.cls-1{fill:#ccc;}</style></defs><title>ma-logo-text-2</title><g id="Layer_2" data-name="Layer 2"><g id="Layer_1-2" data-name="Layer 1"><path class="cls-1" d="M29.36,35.9v-13a8.17,8.17,0,0,0-1-4.42A3.63,3.63,0,0,0,25,16.83a5.2,5.2,0,0,0-1.92.35,3.79,3.79,0,0,0-1.55,1.19,6.16,6.16,0,0,0-1,2.23,13.38,13.38,0,0,0-.38,3.47V35.9H14.68V22.82a8.48,8.48,0,0,0-1-4.39,3.52,3.52,0,0,0-3.27-1.6,5.4,5.4,0,0,0-1.95.35,3.66,3.66,0,0,0-1.57,1.19A6.53,6.53,0,0,0,5.84,20.6a12.87,12.87,0,0,0-.4,3.47V35.9H0V12.63H5.44v3.25a6.65,6.65,0,0,1,2.47-2.72,7.19,7.19,0,0,1,4-1.12,8.47,8.47,0,0,1,4.9,1.19,6.91,6.91,0,0,1,2.44,2.95A7.23,7.23,0,0,1,22,13.23,8,8,0,0,1,26.41,12a9.52,9.52,0,0,1,4.25.82A7,7,0,0,1,33.23,15a7.7,7.7,0,0,1,1.25,2.92,17.1,17.1,0,0,1,.32,3.27V35.9Z"/><path class="cls-1" d="M52.23,36.5a12.74,12.74,0,0,1-5-1,11.42,11.42,0,0,1-3.84-2.67A12.14,12.14,0,0,1,40.87,29a12.88,12.88,0,0,1,0-9.36,12,12,0,0,1,2.47-3.92A11.42,11.42,0,0,1,47.18,13a13.66,13.66,0,0,1,10.11,0,11.77,11.77,0,0,1,3.9,2.67,11.9,11.9,0,0,1,2.49,3.92,12.88,12.88,0,0,1,0,9.36,12,12,0,0,1-2.49,3.9,11.77,11.77,0,0,1-3.9,2.67A12.86,12.86,0,0,1,52.23,36.5Zm0-4.84a6.54,6.54,0,0,0,2.82-.6,6.8,6.8,0,0,0,2.17-1.6,7.37,7.37,0,0,0,1.4-2.35,8.34,8.34,0,0,0,0-5.69,7.37,7.37,0,0,0-1.4-2.35,6.93,6.93,0,0,0-2.17-1.59,6.54,6.54,0,0,0-2.82-.6,6.36,6.36,0,0,0-2.8.6,6.69,6.69,0,0,0-3.52,3.94,8.67,8.67,0,0,0,0,5.69,7,7,0,0,0,1.37,2.35,6.83,6.83,0,0,0,2.15,1.6A6.36,6.36,0,0,0,52.23,31.66Z"/><path class="cls-1" d="M80.58,36.5a12.72,12.72,0,0,1-5-1,11.42,11.42,0,0,1-3.84-2.67A12.14,12.14,0,0,1,69.23,29a12.88,12.88,0,0,1,0-9.36,12,12,0,0,1,2.47-3.92A11.42,11.42,0,0,1,75.54,13a12.55,12.55,0,0,1,5-1,12.7,12.7,0,0,1,5.07,1,11.77,11.77,0,0,1,3.9,2.67A11.9,11.9,0,0,1,92,19.6,12.88,12.88,0,0,1,92,29a12,12,0,0,1-2.49,3.9,11.77,11.77,0,0,1-3.9,2.67A12.87,12.87,0,0,1,80.58,36.5Zm0-4.84a6.48,6.48,0,0,0,2.82-.6,6.73,6.73,0,0,0,2.18-1.6A7.17,7.17,0,0,0,87,27.11a8.34,8.34,0,0,0,0-5.69,7.17,7.17,0,0,0-1.39-2.35,6.86,6.86,0,0,0-2.18-1.59,6.48,6.48,0,0,0-2.82-.6,6.34,6.34,0,0,0-2.79.6,7,7,0,0,0-2.15,1.59,6.8,6.8,0,0,0-1.37,2.35,8.67,8.67,0,0,0,0,5.69,6.74,6.74,0,0,0,3.52,3.95A6.34,6.34,0,0,0,80.58,31.66Z"/><path class="cls-1" d="M115.83,32.75a7.42,7.42,0,0,1-3.12,2.75,9.05,9.05,0,0,1-4.07,1,12,12,0,0,1-4.84-1A11.33,11.33,0,0,1,100,32.86,12.84,12.84,0,0,1,97.58,19.6,12.48,12.48,0,0,1,100,15.68,11.33,11.33,0,0,1,103.8,13a11.79,11.79,0,0,1,4.84-1,9.17,9.17,0,0,1,4.07,1,7.56,7.56,0,0,1,3.12,2.75V1h5.44V35.9h-5.44Zm-6.89-1.09a6.51,6.51,0,0,0,2.82-.6,6.73,6.73,0,0,0,2.18-1.6,7.35,7.35,0,0,0,1.39-2.35,8.34,8.34,0,0,0,0-5.69,7.35,7.35,0,0,0-1.39-2.35,6.86,6.86,0,0,0-2.18-1.59,6.51,6.51,0,0,0-2.82-.6,6.34,6.34,0,0,0-2.79.6,6.69,6.69,0,0,0-3.52,3.94,8.67,8.67,0,0,0,0,5.69A6.8,6.8,0,0,0,104,29.46a6.72,6.72,0,0,0,2.15,1.6A6.34,6.34,0,0,0,108.94,31.66Z"/><path class="cls-1" d="M151.38,12.63V35.9h-5.44V32.75a7.42,7.42,0,0,1-3.12,2.75,9.08,9.08,0,0,1-4.07,1,11.92,11.92,0,0,1-4.84-1,11.33,11.33,0,0,1-3.77-2.67,12.44,12.44,0,0,1-2.45-3.9,13,13,0,0,1,0-9.36,12.3,12.3,0,0,1,2.45-3.92A11.33,11.33,0,0,1,133.91,13a11.76,11.76,0,0,1,4.84-1,9.2,9.2,0,0,1,4.07,1,7.56,7.56,0,0,1,3.12,2.75V12.63Zm-12.33,19a6.54,6.54,0,0,0,2.82-.6,6.69,6.69,0,0,0,2.17-1.6,7.2,7.2,0,0,0,1.4-2.35,8.34,8.34,0,0,0,0-5.69,7.2,7.2,0,0,0-1.4-2.35,6.81,6.81,0,0,0-2.17-1.59,6.54,6.54,0,0,0-2.82-.6,6.39,6.39,0,0,0-2.8.6,6.77,6.77,0,0,0-3.52,3.94,8.85,8.85,0,0,0,0,5.69,7,7,0,0,0,1.38,2.35,6.79,6.79,0,0,0,2.14,1.6A6.39,6.39,0,0,0,139.05,31.66Z"/><path class="cls-1" d="M169.26,22.77c.79.3,1.58.62,2.34.95A8.27,8.27,0,0,1,173.65,25a5.39,5.39,0,0,1,1.42,1.79,5.9,5.9,0,0,1,.53,2.65,6.53,6.53,0,0,1-.73,3.14,6.27,6.27,0,0,1-2,2.23,9.29,9.29,0,0,1-3,1.3,14.9,14.9,0,0,1-3.59.42,11.43,11.43,0,0,1-3.59-.55,9.5,9.5,0,0,1-3-1.62,7.76,7.76,0,0,1-2.09-2.65,8,8,0,0,1-.78-3.62h5.3a3.71,3.71,0,0,0,1.27,3.22,5.31,5.31,0,0,0,3.22.92,5.61,5.61,0,0,0,2.7-.59,2.19,2.19,0,0,0,1.09-2.1,1.91,1.91,0,0,0-.44-1.3,4.23,4.23,0,0,0-1.35-.92,21.31,21.31,0,0,0-2.25-.88c-.9-.3-2-.68-3.2-1.14a21.77,21.77,0,0,1-2.22-1,7.7,7.7,0,0,1-1.77-1.22A4.65,4.65,0,0,1,158,21.32a7.32,7.32,0,0,1-.4-2.54,5.79,5.79,0,0,1,.7-2.9,6.62,6.62,0,0,1,1.9-2.12,8.33,8.33,0,0,1,2.77-1.3,13,13,0,0,1,3.37-.42,9.92,9.92,0,0,1,3.47.59,9,9,0,0,1,2.82,1.65,7.79,7.79,0,0,1,1.9,2.5,7.19,7.19,0,0,1,.7,3.14H170a3.79,3.79,0,0,0-.88-2.62,3.68,3.68,0,0,0-2.87-1,4.12,4.12,0,0,0-2.37.65,2.12,2.12,0,0,0-1,1.89,1.89,1.89,0,0,0,.39,1.23,3.63,3.63,0,0,0,1.2.85c.53.25,1.2.51,2,.8S168.19,22.37,169.26,22.77Z"/><path class="cls-1" d="M186.78,15.78A7.56,7.56,0,0,1,189.9,13,9.17,9.17,0,0,1,194,12a11.79,11.79,0,0,1,4.84,1,11.33,11.33,0,0,1,3.77,2.67A12.3,12.3,0,0,1,205,19.6,13,13,0,0,1,205,29a12.44,12.44,0,0,1-2.45,3.9,11.33,11.33,0,0,1-3.77,2.67,12,12,0,0,1-4.84,1,9.05,9.05,0,0,1-4.07-1,7.42,7.42,0,0,1-3.12-2.75V47.58h-5.44V12.63h5.44Zm6.89,1.1a6.64,6.64,0,0,0-2.87.6,6.81,6.81,0,0,0-2.17,1.59,7,7,0,0,0-1.38,2.35,8.85,8.85,0,0,0,0,5.69,7,7,0,0,0,1.38,2.35,6.61,6.61,0,0,0,5,2.2,6.42,6.42,0,0,0,2.8-.6,6.79,6.79,0,0,0,2.14-1.6A7,7,0,0,0,200,27.11a8.85,8.85,0,0,0,0-5.69,6.77,6.77,0,0,0-3.52-3.94A6.42,6.42,0,0,0,193.67,16.88Z"/><path class="cls-1" d="M210.25,4.15a3.89,3.89,0,0,1,1.17-2.87A3.81,3.81,0,0,1,214.24.1a3.88,3.88,0,0,1,2.87,1.18,3.9,3.9,0,0,1,1.18,2.87A3.87,3.87,0,0,1,217.11,7a3.91,3.91,0,0,1-2.87,1.17A3.84,3.84,0,0,1,211.42,7,3.86,3.86,0,0,1,210.25,4.15Zm1.29,8.48H217V35.9h-5.45Z"/><path class="cls-1" d="M239.05,17.68a9.47,9.47,0,0,0-1.07-.2,8.07,8.07,0,0,0-1.07-.05,6.89,6.89,0,0,0-5.35,2q-1.84,2-1.84,6.42v10h-5.44V12.63h5.44v3.75a5.78,5.78,0,0,1,1.12-1.52,8,8,0,0,1,1.7-1.3,8.93,8.93,0,0,1,2.1-.9,7.94,7.94,0,0,1,2.27-.33,5.7,5.7,0,0,1,2.14.35Z"/><path class="cls-1" d="M241.85,4.15A3.89,3.89,0,0,1,243,1.28,3.85,3.85,0,0,1,245.84.1a3.9,3.9,0,0,1,2.88,1.18,3.89,3.89,0,0,1,1.17,2.87A3.86,3.86,0,0,1,248.72,7a3.93,3.93,0,0,1-2.88,1.17A3.88,3.88,0,0,1,243,7,3.86,3.86,0,0,1,241.85,4.15Zm1.3,8.48h5.44V35.9h-5.44Z"/><path class="cls-1" d="M255.88,12.63h5.44v3.25A7.16,7.16,0,0,1,264.37,13a10,10,0,0,1,4.54-1,9.7,9.7,0,0,1,4.27.84,7,7,0,0,1,2.72,2.3,8.05,8.05,0,0,1,1.17,2.9,20.12,20.12,0,0,1,.33,4V35.9H272v-12a15.43,15.43,0,0,0-.25-2.8,6.71,6.71,0,0,0-.83-2.22,4.13,4.13,0,0,0-1.55-1.47,5.48,5.48,0,0,0-6.64,1.47,8.78,8.78,0,0,0-1.37,5v12h-5.44Z"/><path class="cls-1" d="M280.91,8.28a4.28,4.28,0,0,1-1.71-.34A3.89,3.89,0,0,1,277.92,7a4.21,4.21,0,0,1-.81-1.33,4.43,4.43,0,0,1,0-3.1,4.21,4.21,0,0,1,.81-1.33A3.89,3.89,0,0,1,279.2.34a4.47,4.47,0,0,1,3.42,0,3.93,3.93,0,0,1,1.29.92,4.18,4.18,0,0,1,.8,1.33,4.43,4.43,0,0,1,0,3.1,4.18,4.18,0,0,1-.8,1.33,3.93,3.93,0,0,1-1.29.92A4.28,4.28,0,0,1,280.91,8.28Zm0-.78a2.84,2.84,0,0,0,1.29-.28,3,3,0,0,0,1-.75,3.45,3.45,0,0,0,.62-1.07,3.88,3.88,0,0,0,0-2.52,3.45,3.45,0,0,0-.62-1.07,3,3,0,0,0-1-.75,3.11,3.11,0,0,0-2.58,0,3.12,3.12,0,0,0-1,.75A3.45,3.45,0,0,0,278,2.88a3.89,3.89,0,0,0,0,2.52,3.45,3.45,0,0,0,.62,1.07,3.12,3.12,0,0,0,1,.75A2.84,2.84,0,0,0,280.91,7.5Zm-1.53-1.18V1.73h1.87a1.53,1.53,0,0,1,.66.13,1.41,1.41,0,0,1,.51.35,1.5,1.5,0,0,1,.33.51,1.8,1.8,0,0,1,.11.62,1.59,1.59,0,0,1-.25.89,1.56,1.56,0,0,1-.72.59l.92,1.5h-1L281,4.94h-.76V6.32Zm1.78-2.14a.72.72,0,0,0,.57-.24.91.91,0,0,0,.21-.6.9.9,0,0,0-.21-.6.7.7,0,0,0-.57-.26h-.92v1.7Z"/></g></g></svg>